<?xml version="1.0" encoding="utf-8"?>
<!-- Generator: Adobe Illustrator 23.0.1, SVG Export Plug-In . SVG Version: 6.00 Build 0)  -->
<svg version="1.1" xmlns="http://www.w3.org/2000/svg" xmlns:xlink="http://www.w3.org/1999/xlink" x="0px" y="0px"
	 viewBox="0 0 25.1 20.4" style="enable-background:new 0 0 25.1 20.4;" xml:space="preserve">
<style type="text/css">
	.st0{fill:#F2D6BB;}
	.st1{fill:#F4D2B8;}
	.st2{fill:#EFC39E;}
	.st3{fill:#5B754A;}
</style>
<g id="BACKGROUND">
</g>
<g id="OBJECTS">
	<g>
		<path class="st0" d="M15.7,15.8c0.2-0.1,0.4-0.1,0.6-0.1c0.2,0,0.5,0,0.6-0.2c0.1-0.1,0.1-0.2,0.1-0.4c0-0.3,0-0.5,0.1-0.8
			c0-0.4,0.1-0.7,0.1-1.1c0-0.4,0-0.8,0-1.2c0.1-0.5,0.2-0.9,0.4-1.4c0.1-0.2,0.3-0.5,0.5-0.6c0-0.1,0.1-0.2,0.3-0.3
			c1.1-0.6,2.2-1.2,3.4-1.8c0.5-0.3,1-0.5,1.4-0.9c0.4-0.4,0.7-0.9,0.8-1.4c0-0.3,0-0.6-0.1-0.9c-0.1-0.5-0.2-1.1-0.7-1.3
			c-0.2-0.1-0.4-0.2-0.6-0.2c-0.5-0.1-1-0.4-1.5-0.2c-0.3,0.1-0.5,0.4-0.7,0.7c-0.2,0.2-0.5,0.4-0.8,0.5c-0.5,0.3-1.1,0.6-1.6,0.9
			c-0.3,0.2-0.6,0.3-0.9,0.6C17,5.8,16.8,6,16.7,6.1c-0.3,0.3-0.6,0.7-1,0.9c0.1-0.2,0.1-0.4,0.1-0.6c-0.1-0.2-0.2-0.4-0.3-0.6
			c-0.2-0.3-0.4-0.7-0.7-0.9c-0.2-0.2-0.4-0.4-0.6-0.6c-0.3-0.2-0.5-0.4-0.8-0.7c-0.3-0.2-0.6-0.5-0.9-0.7c-0.3-0.2-0.7-0.3-1-0.5
			c-0.3-0.1-0.6-0.3-0.9-0.4C9.9,1.7,9.1,1.6,8.5,1c0.1,0.4-0.1,0.9-0.2,1.3c0,0.3,0,0.6,0.1,0.8c0,0.1,0.1,0.2,0.1,0.3
			C8.7,3.6,8.9,3.8,9,3.8C7.8,3.8,6.7,4,5.5,4.2c-0.7,0.2-1.4,0.4-2,0.8C3.4,5.2,3.3,5.3,3.2,5.5c-0.1,0.3,0,0.6,0.1,0.9
			c0.6,1.7,1.4,3.5,2.6,4.8C5.6,11,5.2,11,4.8,11c-0.4,0.1-0.9,0.1-1.3,0.2c-0.8,0.2-1.7,0.4-2.3,1C1.1,12.4,1,12.6,1,12.8
			C1.1,12.9,1.3,13,1.4,13c0.5,0.1,0.9,0.4,1.3,0.7c0.5,0.5,0.8,1.1,1.4,1.5c0.4,0.2,0.8,0.3,1.2,0.4c0.4,0.1,0.8,0.1,1.2,0.1
			c0.5-0.1,0.9-0.2,1.4-0.3c0.5-0.1,1-0.1,1.5,0.2c-0.5,0.1-1,0.4-1.3,0.9c-0.2,0.2-0.3,0.5-0.5,0.6c-0.4,0.3-1.1,0.3-1.5,0.7
			c-0.4,0.4-0.5,1-0.6,1.6c0.8-0.5,1.9-0.4,2.6-1c0.4-0.3,0.6-0.7,0.9-1c0.4-0.4,1-0.6,1.5-0.8c0.6-0.1,1.1-0.2,1.7-0.3
			c0.4-0.1,0.7-0.2,1.1-0.2c0.3,0,0.5,0,0.8,0.1C14.6,16.1,15.3,16.2,15.7,15.8z"/>
		<path class="st1" d="M10.5,2.7C10.7,3,11,3.1,11.2,3.3c0.5,0.4,1.1,0.8,1.5,1.2c0.4,0.5,0.8,1,1,1.7c-0.6-0.8-1.4-1.5-2.3-2.1
			c-0.3-0.2-0.7-0.4-1-0.6C9.8,3,9.3,2.3,8.8,1.6C8.9,1.9,9,2.1,9.2,2.4c0.2,0.3,0.4,0.6,0.6,1c0.2,0.3,0.4,0.6,0.7,0.8
			C10.1,4,9.8,3.9,9.5,3.8c-0.3-0.1-0.7-0.1-1,0.1c0,0.1,0.3,0.2,0.4,0.2c0.7-0.1,1.4,0.1,2.1,0.5C11.6,5,12.1,5.5,12.6,6
			c0.2,0.2,0.4,0.4,0.5,0.6c0.4,0.6,0.4,1.3,0.4,2c0,0.7-0.1,1.4,0,2.1c0.1,0.6,0.4,1.2,0.8,1.7c0.5,0.6,1.2,1.1,1.4,1.8
			c0.2,0.5,0.2,1.1,0.7,1.4c0.1,0,0.1,0.1,0.2,0.1c0.2,0,0.4-0.2,0.3-0.4c0-0.2-0.1-0.4-0.2-0.6c-0.4-0.8-0.6-1.8-0.5-2.7
			c-0.2,0.3-0.3,0.6-0.4,0.9c0,0.2-0.1,0.5-0.2,0.7c-0.1-0.1-0.2-0.2-0.2-0.4c0-0.7,0-1.5,0.1-2.2c0.1-0.5,0.2-1.1,0.5-1.5
			c-0.5,0.9-0.6,1.9-0.3,2.8c0.8-0.5,1-1.6,1.8-2.1c0.3-0.2,0.7-0.3,1-0.4c0.3-0.1,0.7-0.3,1-0.5c0.6-0.3,1.3-0.5,1.9-0.7
			c0.2-0.1,0.4-0.1,0.6-0.2c0.6-0.2,1.2-0.7,1.6-1.3c0.3-0.5,0.3-1.2,0.2-1.8c-0.1-0.6-0.4-1.1-0.7-1.6c0.1,0.3,0,0.6,0,0.9
			c-0.1,0.3-0.2,0.6-0.3,0.9c-0.1,0.3-0.3,0.6-0.5,0.8c-0.7,1-1.9,1.6-3,1.9c-0.4,0.1-0.8,0.2-1.2,0.5c-0.2,0.2-0.4,0.4-0.6,0.6
			c0.1-0.2,0-0.4,0.1-0.6c0.1-0.2,0.3-0.5,0.4-0.7c0.8-1,1.9-1.7,3.1-2.3c-1.4,0.5-2.8,1.2-3.9,2.2c0.2-0.4,0.4-0.7,0.7-1
			c0.3-0.2,0.6-0.4,0.9-0.7c0.3-0.3,0.6-0.5,0.9-0.8c0.3-0.2,0.6-0.3,0.9-0.5c0.6-0.2,1.2-0.5,1.9-0.6c-0.5-0.1-1.1,0.1-1.6,0.2
			c-0.5,0.1-0.9,0.2-1.4,0.3c-1.1,0.3-2.1,1-2.7,1.9c-0.1,0-0.1-0.1,0-0.2c0.2-0.2,0.3-0.5,0.5-0.7c0.2-0.2,0.3-0.5,0.5-0.7
			c0.2-0.2,0.5-0.3,0.7-0.4c0.5-0.2,1-0.4,1.5-0.6c-1.5,0.2-2.9,1.1-4.1,2c-0.2,0.2-0.4,0.3-0.6,0.6c-0.1,0.2-0.1,0.4-0.1,0.7
			c0,0.2-0.4,0.3-0.6,0.4c0-0.6,0-1.2-0.3-1.7c-0.1-0.2-0.2-0.4-0.3-0.6c-0.2-0.3-0.4-0.6-0.6-0.9c-0.2-0.2-0.5-0.3-0.7-0.5
			c-0.6-0.4-1-1-1.7-1.3c-0.3-0.1-0.5-0.2-0.7-0.4"/>
		<path class="st1" d="M14.6,15.6c0.3,0.1,0.6,0,0.8-0.3c0.2-0.3,0.1-0.6,0-0.9c-0.1-0.3-0.3-0.5-0.5-0.8c-0.6-0.8-1.3-1.6-1.5-2.5
			c-0.2-0.7-0.1-1.5-0.2-2.2c-0.2-1.3-1-2.4-2.1-3.1C9.7,5.1,8.1,5,6.7,4.6C7.5,4.8,8.3,5,9.1,5.4c0.6,0.4,1.1,0.9,1.6,1.4
			c0.4,0.4,0.7,0.8,1.1,1.2c0.1,0.1,0.2,0.3,0.3,0.5c0.1,0.2,0,0.4-0.1,0.5c-0.3-0.3-0.6-0.6-0.9-0.9C9.5,6.5,7.4,5.4,5.1,5
			c2.1,0.8,4.1,2.2,5.6,3.8c0.3,0.3,0.7,0.8,0.6,1.3c0,0.1-0.1,0.2-0.1,0.2c-0.2,0.2-0.5,0-0.7-0.2C8.7,8.5,6.9,6.7,4.7,5.6
			C7,7.3,9,9.4,10.8,11.7c0.1,0.2,0.3,0.5,0.1,0.7c-0.1,0.1-0.4,0.1-0.5,0c-0.4-0.2-0.8-0.6-1.1-0.9c-1-0.9-1.9-2-2.8-3
			c0.7,0.9,1.3,1.9,2,2.8C7,9.6,5.4,8,4.1,6.2c1.4,2.1,2.7,4.2,4.4,6c-0.8-0.6-1.5-1.2-2.2-1.9c0.4,0.9,1.1,1.7,2,2.3
			c1.2,0.8,2.7,1.1,4.1,1.4c0.7,0.1,1.5,0.3,2,0.8c0.2,0.2,0.3,0.4,0.2,0.6c-1.9-0.5-3.8-1.1-5.6-1.8c-0.4-0.2-0.8-0.3-1.2-0.6
			c-0.3-0.2-0.5-0.5-0.7-0.8C6.5,11.5,6,10.6,5.6,9.7C5.1,8.9,4.6,8.1,4.2,7.2C3.8,6.5,3.4,5.9,3.3,5.1c0,1.1,0.4,2.1,1,3
			c0.5,0.9,1.1,1.9,1.4,3c0-0.2-0.3-0.2-0.5-0.2c-1.3,0.2-2.6,0.7-3.7,1.4c-0.1,0.1-0.2,0.2-0.2,0.3c0,0.1,0.1,0.2,0.2,0.3
			c0.1,0,0.2,0,0.4,0c1-0.2,2.1-0.2,3.1,0c0.3,0,0.6,0.2,0.8,0.4c-0.1-0.1-0.3-0.1-0.5-0.1c-0.2,0-0.5,0.1-0.7,0.1
			c-0.5,0.1-0.9,0.2-1.3,0.5c1.2,0.2,2.3,0.5,3.5,0.7c-0.9,0-1.9-0.2-2.8-0.3c0.8,0.5,1.8,0.7,2.8,0.7c1,0,2,0,2.9,0.2
			c0.1,0,0.3,0.1,0.4,0.2c0.1,0,0.2-0.1,0.3-0.1c0.1,0,0.2,0.1,0.2,0.2c0,0.1-0.1,0.2-0.3,0.3C9.6,15.8,9,16,8.7,16.5
			c-0.1,0.2-0.2,0.4-0.2,0.6c-0.1,0.3-0.3,0.6-0.5,0.8c-0.1,0.1-0.1,0.2-0.2,0.2c-0.1,0.1-0.2,0.1-0.3,0.1c-0.4,0.1-0.8,0.2-1.1,0.4
			C6,18.8,5.7,19,5.5,19.4c0.3-0.3,0.7-0.3,1.1-0.4c0.3-0.1,0.6-0.2,0.8-0.3c0.3-0.1,0.6-0.3,0.9-0.4c0.1,0,0.2-0.1,0.3-0.2
			c0.1-0.1,0.1-0.2,0.1-0.3c0.2-0.6,0.7-1,1.1-1.5c0.1-0.1,0.3-0.3,0.5-0.4c0.2-0.1,0.5-0.1,0.8-0.1C12.2,15.8,13.5,15.8,14.6,15.6z
			"/>
		<path class="st2" d="M17.1,11.5c0-0.3,0.1-0.5,0.3-0.8c0.2-0.3,0.6-0.4,0.9-0.6c0.2-0.1,0.4-0.2,0.7-0.3c-0.3,0-0.6,0.1-0.9,0.2
			c-0.7,0.3-1.3,0.8-1.7,1.4c-0.4,0.6-0.5,1.4-0.3,2.1c0.1,0.3,0.3,0.5,0.4,0.8c0.3,0.5,0.6,0.9,0.9,1.4c-0.4-0.6-0.2-1.3-0.2-1.9
			C17,13.1,17,12.3,17.1,11.5z"/>
		<path class="st1" d="M15.5,15.5c-0.3-0.2-0.5-0.4-0.8-0.6c-0.3-0.2-0.5-0.4-0.8-0.5c-0.2-0.1-0.4-0.2-0.7-0.3
			c-1.1-0.5-1.9-1.4-3-1.9c1.8,0.7,3.5,1.7,5.1,2.7c-1.2-0.8-2.4-1.7-3.2-2.9c0.6,0.5,1.2,1,1.8,1.6c-0.4-0.6-1-1-1.3-1.7
			c-0.1-0.2-0.1-0.4-0.2-0.6c-0.4-1.6-1.4-3.1-2.7-4c0.9,0.5,1.6,1.3,2.2,2.1c0.4,0.6,0.8,1.1,1.2,1.7c0.3,0.5,0.6,1,1,1.5
			c0.4,0.5,0.8,1,1.2,1.4c0.1-0.3-0.2-0.6-0.4-0.9c-0.4-0.5-0.8-1-1.1-1.5c-0.1-0.2-0.2-0.4-0.2-0.6c-0.1-0.3,0-0.7,0-1
			c0-0.4,0.1-0.9,0-1.3c-0.1-0.6-0.4-1.2-0.6-1.7c-0.3-0.5-0.6-1-0.9-1.5c-0.8-0.9-2-1.3-3.2-1.6c0.6,0.2,1.3,0.4,1.9,0.7
			c0.4,0.2,0.7,0.5,1,0.7c0.3,0.2,0.6,0.5,0.8,0.7C12.8,6.4,13,6.7,13.2,7c0.6,1,1.3,2,1.2,3.1c0.2-0.7,0.1-1.5-0.2-2.2
			c-0.3-0.7-0.7-1.4-1.1-2c-0.4-0.5-0.8-1.1-1.2-1.6c1.2,1.2,2.1,2.6,2.7,4.2c0.1-0.7,0-1.5-0.2-2.2c-0.2-0.5-0.5-0.9-0.8-1.4
			c-0.4-0.5-0.9-1-1.5-1.4c1.4,0.7,2.4,1.9,3,3.4c0.1,0.4,0.2,0.8,0.1,1.2c0.4-0.3,0.8-0.7,0.7-1.2c0,0.4,0.1,0.8,0,1.2
			c-0.1,0.2-0.1,0.3-0.2,0.4c-0.2,0.5-0.1,1-0.1,1.5c0.6-1.2,1.3-2.3,2.3-3.1c-0.4,0.4-0.7,0.8-1,1.3c-0.3,0.4-0.6,0.9-0.8,1.4
			c-0.1,0.2-0.1,0.5-0.2,0.7c-0.1,0.6-0.2,1.3-0.3,1.9c-0.1,0.6,0,1.2,0.2,1.7c0.1,0.2,0.3,0.4,0.4,0.6c0.3,0.4,0.6,0.8,0.9,1.2
			c-0.4,0-0.8-0.1-1.2-0.1C15.6,15.7,15.6,15.7,15.5,15.5z"/>
		<path class="st2" d="M8.6,17.8c0.1-0.1,0.1-0.2,0.2-0.3c0.3-0.4,0.6-0.8,1-1c0.4-0.2,0.8-0.2,1.3-0.3c0.3-0.1,0.6-0.2,0.8-0.3
			c1-0.3,2.1,0.1,3.2-0.2c-0.2-0.2-0.5-0.3-0.7-0.4c-0.6-0.2-1-0.6-1.6-0.8c-0.2-0.1-0.5-0.1-0.7-0.2c-0.9-0.2-1.8-0.5-2.7-0.8
			c-0.4-0.1-0.8-0.3-1.2-0.5c-0.3-0.2-0.7-0.4-1-0.5c0.4,0.4,1,0.8,1.5,1c0,0.1-0.2,0-0.3,0c-1.2,0-2.4,0-3.5,0
			c0.8,0.3,1.7,0.3,2.5,0.3c0.8,0,1.6,0.1,2.4,0.3c-1.9,0.3-3.8,0.6-5.6-0.1C5.3,14.9,6.7,15,8,14.9c0.4-0.1,0.8-0.1,1.2,0
			c0.3,0.1,0.5,0.3,0.7,0.4c-0.3,0.1-0.6,0.2-0.9,0.3c0.4-0.2,0.9-0.3,1.4-0.4c0.8-0.1,1.7-0.1,2.6,0c-0.6,0.2-1.3,0.2-1.9,0.3
			c-0.6,0.1-1.3,0.2-1.8,0.6c-0.3,0.2-0.5,0.5-0.6,0.9c-0.1,0.3-0.1,0.5-0.3,0.8c-0.2,0.4-0.6,0.6-0.9,0.9c-0.2,0.1-0.4,0.2-0.6,0.2
			c0.2,0.1,0.4,0,0.5-0.1c0.4-0.2,0.8-0.5,1.2-0.7C8.6,17.9,8.6,17.9,8.6,17.8z"/>
		<path class="st3" d="M21.2,15.9c0.1,0.1-0.1,0.2-0.2,0.3c-0.8,0.3-1.6,0.3-2.4,0.1c-0.3-0.1-0.6-0.2-0.7-0.4
			c-0.1-0.1-0.1-0.3-0.2-0.4c-0.1-0.3-0.3-0.6-0.4-1c-0.2-0.5-0.5-1-1-1.2c0.1,0.3,0,0.7,0.1,1.1c0,0.4,0.2,0.7,0.5,0.9
			c-1.2-0.4-2.4-0.1-3.6,0.3c0.6,0.3,1.3,0.5,1.9,0.8c0.2,0.1,0.5,0.2,0.8,0.3c0.5,0.1,1,0,1.5-0.1c0.5,0,1.1,0.1,1.6,0.1
			c0.5,0.1,1.1,0.1,1.6-0.1c0.5-0.2,1-0.6,1.1-1.1C21.5,15.5,21.3,15.7,21.2,15.9z"/>
	</g>
</g>
<g id="DESIGNED_BY_FREEPIK">
</g>
</svg>
