<?xml version="1.0" encoding="utf-8"?>
<!-- Generator: Adobe Illustrator 23.0.1, SVG Export Plug-In . SVG Version: 6.00 Build 0)  -->
<svg version="1.1" id="Capa_1" xmlns="http://www.w3.org/2000/svg" xmlns:xlink="http://www.w3.org/1999/xlink" x="0px" y="0px"
	 viewBox="0 0 512 512" style="enable-background:new 0 0 512 512;" xml:space="preserve">
<style type="text/css">
	.st0{fill:#FFFFFF;}
	.st1{fill:#D1BCA1;}
	.st2{fill:#D3C5B4;}
	.st3{fill:#D8D0C5;}
	.st4{opacity:0.38;fill:#E8E0CA;enable-background:new    ;}
	.st5{opacity:0.22;fill:#D1B19F;enable-background:new    ;}
	.st6{fill:#FE646F;}
	.st7{fill:#FD4755;}
	.st8{fill:#3EC3A4;}
	.st9{fill:#6FD7A3;}
	.st10{fill:#FC8B96;}
</style>
<g>
	<path class="st0" d="M89.6,217.3c-4.8,0-8.8-3.9-8.8-8.8c0-50.6,21-98.8,58-133.2c3.6-3.2,9.1-3,12.3,0.6c3.3,3.5,3.1,9-0.4,12.3
		c-33.4,31.1-52.4,74.7-52.4,120.4C98.4,213.3,94.5,217.3,89.6,217.3z"/>
	<path class="st0" d="M194.7,58.7c-4.2,0-7.8-3-8.6-7.1s1.4-8.2,5.3-9.8c20.5-8.4,42.5-12.7,64.6-12.6c4.8,0,8.8,3.9,8.8,8.8
		s-3.9,8.8-8.8,8.8c-19.9,0-39.6,3.9-58,11.4C197,58.5,195.9,58.7,194.7,58.7L194.7,58.7z"/>
	<path class="st1" d="M510,432c0,43.5-113.7,78.8-254,78.8S2.1,475.6,2.1,432c1.1-11.9,7.7-22.7,17.9-29c-0.3,1-0.4,2-0.4,3
		c0,33.7,105.9,61,236.5,61s236.5-27.3,236.5-61c0-1-0.1-2-0.4-3C502.3,409.4,508.9,420.1,510,432z"/>
	<path class="st2" d="M492.5,406c0,33.7-105.9,61-236.5,61S19.6,439.7,19.6,406c0-1,0.1-2,0.4-3c1.7-8.5,10.9-14.8,25.9-19.4V397
		c0,24.2,94.1,43.8,210.2,43.8s210.2-19.6,210.2-43.8v-13.4c15.1,4.6,24.3,10.9,25.9,19.4C492.4,404,492.5,405,492.5,406z"/>
	<path class="st3" d="M466.2,383.3V397c0,23.3-87.6,42.4-198,43.7c-4,0.1-8.1,0.1-12.2,0.1s-8.1,0-12.2-0.1
		c-110.4-1.3-198-20.4-198-43.7v-13.7C85.2,370.6,164.5,362,256,362S426.9,370.6,466.2,383.3z"/>
	<path id="Shape" class="st4" d="M466.2,208.5V397c0,24.2-94.1,43.8-210.2,43.8S45.9,421.2,45.9,397V208.5
		C45.9,94.9,140,2.9,256,2.9c55.5-0.1,108.9,21.5,148.6,60.3C444,101.3,466.2,153.7,466.2,208.5z"/>
	<path class="st5" d="M422.7,83.2c-32.1-18.3-68.4-27.8-105.4-27.8c-116,0-210.2,92-210.2,205.6v166.8c-37.8-8-61.3-18.8-61.3-30.9
		V208.5C45.9,94.9,140,2.9,256,2.9c55.5-0.1,108.9,21.5,148.6,60.3C411.1,69.5,417.1,76.1,422.7,83.2L422.7,83.2z"/>
	<path class="st0" d="M89.6,217.3c-4.8,0-8.8-3.9-8.8-8.8c0-50.6,21-98.8,58-133.2c2.3-2.2,5.6-3,8.6-2.1s5.4,3.4,6,6.5
		c0.7,3.1-0.4,6.3-2.8,8.4c-33.4,31.1-52.4,74.7-52.4,120.4c0,2.3-0.9,4.6-2.6,6.2C94.2,216.3,92,217.3,89.6,217.3z"/>
	<path class="st0" d="M194.7,58.7c-4.2,0-7.8-3-8.6-7.1s1.4-8.2,5.3-9.8c20.5-8.4,42.5-12.7,64.6-12.6c4.8,0,8.8,3.9,8.8,8.8
		s-3.9,8.8-8.8,8.8c-19.9,0-39.6,3.9-58,11.4C197,58.5,195.9,58.7,194.7,58.7z"/>
	<g>
		<path class="st6" d="M239.1,143.6l20.3-13.6c8.6-5.8,19.1-8.2,29.4-6.7l14.4,2c7.5,1.1,13.3,6.9,14.4,14.4l3.4,24.6
			c1,7.5-3.1,14.9-10.1,17.8l-48.6,23.6L239.1,143.6z"/>
		<path class="st7" d="M321,164.3l-3.4-24.6c-1-7.5-6.9-13.3-14.4-14.4l-14.4-2c-4-0.6-8-0.5-12,0l14.2,2
			c7.5,1.1,13.3,6.9,14.4,14.4l3.4,24.6c1,7.5-3.1,14.9-10.1,17.8l-38.3,18.6l1.9,5l48.6-23.6C317.9,179.1,322,171.8,321,164.3z"/>
		<path class="st7" d="M296.2,171.8c-1.6,0-3.2-0.9-4-2.4l-0.8-1.4c-2.7-5-7.4-8.7-12.9-10.1l-18.1-4.6c-2.4-0.6-3.9-3.1-3.3-5.5
			s3.1-3.9,5.5-3.3l18.1,4.6c7.9,2.1,14.7,7.4,18.6,14.6l0.8,1.4c1.2,2.2,0.4,5-1.8,6.2C297.7,171.6,297,171.8,296.2,171.8
			L296.2,171.8z"/>
		<path class="st8" d="M257,312.4c-0.9,0-1.7-0.2-2.5-0.8l-16.1-10.8c-2.1-1.4-2.7-4.2-1.3-6.3c1.4-2.1,4.2-2.7,6.3-1.3l16.1,10.8
			c2.1,1.4,2.7,4.2,1.3,6.3C259.9,311.7,258.5,312.4,257,312.4L257,312.4z"/>
		<path class="st9" d="M246.9,390.4c-1.6,0-3.1-0.8-4-2.3c-1.2-2.2-0.5-5,1.7-6.2l15.1-8.3c2.2-1.2,5-0.5,6.2,1.7s0.5,5-1.7,6.2
			l-15.1,8.3C248.4,390.3,247.7,390.4,246.9,390.4L246.9,390.4z"/>
		<path class="st6" d="M188.2,181.9l-4.7-21.5c-2.7-12.3,3.2-24.9,14.5-30.6l36.3-18.4c5.8-2.9,12.8-2.1,17.7,2.1l15.9,13.6
			c2.8,2.4,3.5,6.6,1.5,9.8l-41.5,65.8L188.2,181.9z"/>
		<path class="st7" d="M260.6,163.4c0.2,9.3-0.9,18.7-3.3,27.7c-6.6,27.7-47.7,25.5-51.8-2.5c-4.2-16.7-6.9-44.3,17-45
			C238.7,143.2,259.6,141.4,260.6,163.4L260.6,163.4z"/>
		<path class="st7" d="M252,113.5c-4.6-4-11-4.9-16.5-2.7c1.6,0.6,3,1.5,4.4,2.7l15.9,13.6c2.8,2.4,3.5,6.6,1.5,9.8l-38.5,61
			l9.1,4.8l41.5-65.8c2-3.2,1.4-7.3-1.5-9.8L252,113.5z"/>
		<g>
			<path class="st9" d="M246.2,410.6h-9.7c-2.3,0-4.1-1.9-4.1-4.1V375c0-13.2,4-26.1,11.5-36.9l1-1.4c5.4-7.8,8.3-17.2,8.3-26.7
				v-48.7h18V310c0,13.2-4,26-11.5,36.9l-1,1.4c-5.4,7.9-8.3,17.2-8.3,26.7v31.5C250.3,408.8,248.4,410.6,246.2,410.6L246.2,410.6z"
				/>
		</g>
		<path class="st8" d="M261.3,261.4V310c0,13.2-4,26-11.5,36.9l-1,1.4c-5.4,7.8-8.3,17.2-8.3,26.7v30.2c0,2.5-1.7,4.7-4.1,5.4h9.7
			c2.3,0,4.1-1.9,4.1-4.1V375c0-9.5,2.9-18.8,8.3-26.7l1-1.4C267,336.1,271,323.2,271,310v-48.7L261.3,261.4L261.3,261.4z"/>
		<path class="st9" d="M277.1,322.8l-4.8-5.9c-1.7-2.1-1.7-5,0-7.1l4.8-5.9c3.6-4.3,8.9-6.9,14.5-6.9h4.3c5.6,0,11,2.5,14.5,6.9
			l3.6,4.3c2.4,3,2.4,7.2,0,10.2l-3.6,4.3c-3.6,4.3-8.9,6.9-14.5,6.9h-4.3C286,329.7,280.6,327.2,277.1,322.8L277.1,322.8z"/>
		<path class="st8" d="M314,308.3l-3.6-4.3c-3.6-4.3-8.9-6.9-14.5-6.9h-4.3c-1.3,0-2.7,0.1-4,0.4c4.1,0.9,7.9,3.1,10.6,6.4l3.6,4.3
			c2.4,3,2.4,7.2,0,10.2l-3.6,4.3c-2.7,3.3-6.5,5.6-10.6,6.4c1.3,0.3,2.6,0.4,4,0.4h4.3c5.6,0,11-2.5,14.5-6.9l3.6-4.3
			C316.4,315.5,316.4,311.3,314,308.3z"/>
		<path class="st9" d="M226.5,377.3l4.8-5.9c1.7-2.1,1.7-5,0-7.1l-4.8-5.9c-3.6-4.3-8.9-6.9-14.5-6.9h-4.3c-5.6,0-11,2.5-14.5,6.9
			l-3.6,4.3c-2.4,3-2.4,7.2,0,10.2l3.6,4.3c3.6,4.3,8.9,6.9,14.5,6.9h4.3C217.6,384.2,223,381.7,226.5,377.3z"/>
		<path class="st8" d="M226.5,358.5c-3.6-4.3-8.9-6.9-14.5-6.9h-4.3c-1.3,0-2.7,0.1-4,0.4c4.1,0.9,7.9,3.1,10.6,6.4l4.8,5.9
			c1.7,2.1,1.7,5,0,7.1l-4.8,5.9c-2.7,3.3-6.5,5.6-10.6,6.4c1.3,0.3,2.6,0.4,4,0.4h4.3c5.6,0,11-2.5,14.5-6.9l4.8-5.9
			c1.7-2.1,1.7-5,0-7.1L226.5,358.5z"/>
		<path class="st10" d="M272.8,163.4v2.8c0,5.2-0.4,10.4-1.3,15.5c-0.2,1.5-0.5,3-0.9,4.5c-0.2,1.1-0.5,2.1-0.7,3.2l-0.3,1.4
			l-0.1,0.4c-2.9,11.8-13.5,20-25.6,20c-12.2,0-22.7-8.3-25.6-20.1l-0.6-2.4c-1.3-5.4-2.2-11-2.5-16.5c-0.1-2.1-0.2-4.2-0.2-6.2
			v-2.4c0-1.3,0.1-2.6,0.4-3.8c1.7-8.8,9.3-15.5,18.4-15.9c0.3,0,0.6,0,1,0H253C263.9,143.6,272.8,152.5,272.8,163.4z"/>
		<path class="st6" d="M253,143.6h-14.2c11.3,0.9,21.2,4.9,21.9,19.8c0.2,9.3-0.9,18.7-3.3,27.7c-2.7,11.1-10.9,17.4-20,19.2
			c2.1,0.5,4.3,0.8,6.6,0.8c12.1,0,22.7-8.3,25.6-20l0.4-1.7c0.3-1.1,0.5-2.1,0.7-3.2c1.4-6.6,2.1-13.3,2.1-20v-2.8
			C272.8,152.5,263.9,143.6,253,143.6L253,143.6z"/>
		<path class="st6" d="M331.6,186.7l-13.5,24.9c-1.9,3.5-3.4,7.2-4.4,11.1l-4.5,16.6c-5.3,19.6-23,33.2-43.3,33.2h-19.7
			c-20.3,0-38-13.6-43.3-33.2l-4.3-16.1c-1.1-4.2-2.8-8.3-5-12.1l-13-22.8c-2.3-4,1.5-8.7,5.8-7.4l37.9,19.9
			c6.2,3.2,12.9,5,19.7,5.3c6.2,0.2,12.5-0.8,18.5-3.1c0.6-0.2,1.2-0.5,1.7-0.7l46.6-20.2l15.4-2.8
			C330.5,178.5,333.7,183,331.6,186.7L331.6,186.7z"/>
		<g>
			<path class="st7" d="M326.3,179.3l-7.7,1.4c1.5,1.5,2,3.9,0.9,6L306,211.6c-3.8,6.6-6.8,20.3-8.9,27.7
				c-6,22.3-23.4,31.2-43.2,33.2H266c20.3,0,38-13.6,43.3-33.2l4.5-16.6c1-3.9,2.5-7.6,4.4-11.1l13.5-24.9
				C333.7,183,330.5,178.5,326.3,179.3L326.3,179.3z"/>
		</g>
		<path class="st6" d="M271.5,181.7c-0.2,1.5-0.5,3-0.9,4.5c-0.2,1.1-0.5,2.1-0.7,3.2l-0.3,1.4h-13.8c-2.4,0-4.8-0.2-7.2-0.5
			c-10-1.4-19.3-5.7-26.8-12.4l-6.6-5.8c-0.1-2.1-0.2-4.2-0.2-6.2v-2.4c0-1.3,0.1-2.6,0.4-3.8l4.2,4.2l8.3,7.3
			c6.2,5.5,13.9,9,22.1,10.2c2,0.3,4,0.4,6,0.4h15.5V181.7z"/>
		<g>
			<path class="st7" d="M271.5,181.7c-0.2,1.5-0.5,3-0.9,4.5c-0.2,1.1-0.5,2.1-0.7,3.2l-0.3,1.4h-12.2c0.8-3,1.4-6,1.9-9.1
				L271.5,181.7L271.5,181.7z"/>
			<path class="st7" d="M249.1,168.9c-2.5,0.5-4.9-1.1-5.4-3.5c-1.1-5.3-3-10.3-5.8-14.9l-4.1-6.8c0.3,0,0.6,0,1,0h9.7l2.6,4.5
				c2.6,4.8,4.5,10,5.6,15.4C253.1,166,251.5,168.4,249.1,168.9z"/>
			<path class="st7" d="M262.5,203c-6.1,3.4-21.6,14.2-26.9,37.5c-0.5,2.1-2.3,3.5-4.4,3.5c-0.3,0-0.7,0-1-0.1c-2.4-0.6-4-3-3.4-5.4
				c3.4-14.8,10.4-25.3,17.2-32.4C250.3,206.4,256.6,205.3,262.5,203z"/>
		</g>
	</g>
</g>
</svg>
